<svg xmlns="http://www.w3.org/2000/svg" viewBox="0 0 400 200" preserveAspectRatio="xMidYMid slice" aria-hidden="true" focusable="false"><defs><linearGradient id="sky-Faisalabad" x1="0" y1="0" x2="0" y2="1"><stop offset="0" stop-color="#f9a8c8"></stop><stop offset="0.55" stop-color="#e56f9e"></stop><stop offset="1" stop-color="#a83c86"></stop></linearGradient><radialGradient id="glow-Faisalabad"><stop offset="0" stop-color="#fff1e0" stop-opacity="0.85"></stop><stop offset="1" stop-color="#fff1e0" stop-opacity="0"></stop></radialGradient><linearGradient id="haze-Faisalabad" x1="0" y1="0" x2="0" y2="1"><stop offset="0" stop-color="#e089b8" stop-opacity="0"></stop><stop offset="1" stop-color="#e089b8" stop-opacity="0.45"></stop></linearGradient></defs><rect width="400" height="200" fill="url(#sky-Faisalabad)"></rect><circle cx="280" cy="115.99999999999999" r="86" fill="url(#glow-Faisalabad)"></circle><circle cx="280" cy="115.99999999999999" r="17" fill="#fff1e0" opacity="0.95"></circle><path d="M0 150 C70 132 150 140 210 134 C280 127 340 137 400 130 V150 Z" fill="#b84a8c" opacity="0.55"></path><rect y="104" width="400" height="46" fill="url(#haze-Faisalabad)"></rect><g transform="translate(89.99999999999999 28.999999999999986) scale(1.1)"><g fill="rgba(255,255,255,0.5)"><rect x="20" y="74" width="52" height="28"></rect><rect x="128" y="78" width="54" height="24"></rect></g><g fill="rgba(255,255,255,0.92)"><path d="M100 14c7 0 11 7 11 14H89c0-7 4-14 11-14Z"></path><rect x="98.5" y="6" width="3" height="9"></rect><rect x="88" y="28" width="24" height="6"></rect><path d="M90 34h20l5 68H85l5-68Z"></path><rect x="78" y="102" width="44" height="8"></rect><rect x="16" y="102" width="170" height="8"></rect></g><circle cx="100" cy="50" r="8" fill="rgba(15,23,42,0.2)"></circle><circle cx="100" cy="50" r="5.5" fill="rgba(255,255,255,0.92)"></circle><g fill="rgba(15,23,42,0.2)"><rect x="99.25" y="45" width="1.5" height="6"></rect><rect x="100" y="49.25" width="5" height="1.5"></rect></g></g><rect y="28.999999999999986" width="400" height="121.00000000000001" fill="#edc3d8" opacity="0.1"></rect><ellipse cx="200" cy="151" rx="130" ry="8" fill="#0b1220" opacity="0.16"></ellipse><g fill="#651f52"><path d="M0 150 q 25 -9 50 0 q 25 -5 50 0 q 25 -9 50 0 q 25 -5 50 0 q 25 -9 50 0 q 25 -5 50 0 q 25 -9 50 0 q 25 -5 50 0 V200 H0 Z" fill="#651f52"></path><g><rect x="28" y="132" width="4" height="26"></rect><ellipse cx="30" cy="126" rx="16" ry="12"></ellipse><ellipse cx="21" cy="132" rx="10" ry="8"></ellipse><ellipse cx="39" cy="132" rx="10" ry="8"></ellipse></g><g><rect x="368" y="132" width="4" height="26"></rect><ellipse cx="370" cy="126" rx="16" ry="12"></ellipse><ellipse cx="361" cy="132" rx="10" ry="8"></ellipse><ellipse cx="379" cy="132" rx="10" ry="8"></ellipse></g></g><rect width="400" height="200" fill="url(#vig-Faisalabad)"></rect><defs><radialGradient id="vig-Faisalabad" cx="0.5" cy="0.45" r="0.78"><stop offset="0.6" stop-color="#0b1220" stop-opacity="0"></stop><stop offset="1" stop-color="#0b1220" stop-opacity="0.3"></stop></radialGradient></defs></svg>